<?xml version="1.0" standalone="no"?><!DOCTYPE svg PUBLIC "-//W3C//DTD SVG 1.1//EN" "http://www.w3.org/Graphics/SVG/1.1/DTD/svg11.dtd"><svg t="1583403896333" class="icon" viewBox="0 0 1024 1024" version="1.1" xmlns="http://www.w3.org/2000/svg" p-id="1178" xmlns:xlink="http://www.w3.org/1999/xlink" width="200" height="200"><defs><style type="text/css"></style></defs><path d="M425.060217 114.452959a40.634499 40.634499 0 0 1 0-81.268999h557.099512a40.634499 40.634499 0 1 1 0 81.268999zM24.210658 0H269.497193a24.676607 24.676607 0 0 1 24.465244 24.518085V269.487576A24.465245 24.465245 0 0 1 269.497193 293.847139H24.210658A24.623767 24.623767 0 0 1 0.009617 269.487576V24.518085A24.83513 24.83513 0 0 1 24.210658 0z m221.455379 49.036171H49.045788v196.356045h196.620249V49.036171zM24.210658 365.076404H269.497193a24.1482 24.1482 0 0 1 24.465244 23.936838v245.656419A24.412404 24.412404 0 0 1 269.497193 658.923543H24.210658A24.570926 24.570926 0 0 1 0.009617 634.669661V389.013242a24.306723 24.306723 0 0 1 24.201041-23.936838z m221.455379 48.719127H49.045788v196.356045h196.620249V413.795531zM24.210658 730.417012H269.497193a23.989678 23.989678 0 0 1 24.465244 23.936837v245.392216a24.412404 24.412404 0 0 1-24.465244 24.253882H24.210658A24.570926 24.570926 0 0 1 0.009617 999.746065v-245.392216a24.1482 24.1482 0 0 1 24.201041-23.936837z m221.455379 48.454923H49.045788v196.408886h196.620249V778.871935z m179.39418-517.838871a40.793021 40.793021 0 0 1 0-81.586043h557.099512a40.793021 40.793021 0 0 1 0 81.586043z m0 218.020732a40.000411 40.000411 0 0 1-40.370296-39.841888 40.740181 40.740181 0 0 1 40.370296-40.898703h557.099512a40.581658 40.581658 0 0 1 40.634499 40.898703 39.894729 39.894729 0 0 1-40.634499 39.841888z m0 147.055672a40.951543 40.951543 0 0 1-40.370296-40.951544 40.475977 40.475977 0 0 1 40.370296-40.370295h557.099512a40.317455 40.317455 0 0 1 40.634499 40.370295 40.793021 40.793021 0 0 1-40.634499 40.951544z m0 218.54914a40.951543 40.951543 0 0 1 0-81.903087h557.099512a40.951543 40.951543 0 0 1 0 81.903087z m0 145.893175a40.370296 40.370296 0 1 1 0-80.68775h557.099512a40.370296 40.370296 0 1 1 0 80.68775z" p-id="1179"></path></svg>