<?xml version="1.0" standalone="no"?><!DOCTYPE svg PUBLIC "-//W3C//DTD SVG 1.1//EN" "http://www.w3.org/Graphics/SVG/1.1/DTD/svg11.dtd"><svg t="1583408876340" class="icon" viewBox="0 0 1024 1024" version="1.1" xmlns="http://www.w3.org/2000/svg" p-id="1182" xmlns:xlink="http://www.w3.org/1999/xlink" width="200" height="200"><defs><style type="text/css"></style></defs><path d="M949.318159 852.129491l-118.256202-204.885127A402.049791 402.049791 0 0 0 227.694424 118.206259a401.144634 401.144634 0 0 0-34.608974 528.98486L74.50978 852.129491a24.013304 24.013304 0 0 0 25.876864 36.898491l160.425906-42.59566 42.595661 159.733727A23.747081 23.747081 0 0 0 347.122008 1011.863218l120.918431-210.103095A320.851813 320.851813 0 0 0 512.180192 804.209373a300.246163 300.246163 0 0 0 43.287841-2.608984L677.238377 1011.863218a23.374369 23.374369 0 0 0 32.266213 8.732111 25.504152 25.504152 0 0 0 11.021627-14.855237l43.021618-159.733727 159.733727 42.595661a23.534102 23.534102 0 0 0 29.018294-17.144754 21.617298 21.617298 0 0 0-3.194675-19.753737zM334.662777 937.320812l-34.023284-127.30778a25.024951 25.024951 0 0 0-29.657229-17.144754l-0.58569 0.266223-126.1364 33.916795 81.677179-142.375995 1.757071 1.437603a397.044801 397.044801 0 0 0 190.083136 106.968353L334.662777 937.320812zM512.180192 724.342509A321.810216 321.810216 0 0 1 284.346653 174.592265a322.076439 322.076439 0 1 1 455.454101 455.454101A321.064792 321.064792 0 0 1 512.180192 724.342509z m241.251173 69.217949l-0.266223-0.319468a24.705483 24.705483 0 0 0-29.657228 17.144754l-33.437594 127.30778L606.103624 793.560458a397.896714 397.896714 0 0 0 190.349358-106.968353l1.437604-1.437603 82.262869 142.375995-126.72209-33.970039zM681.391454 232.735342a239.227879 239.227879 0 0 0-338.316034 0 239.600591 239.600591 0 1 0 338.316034 0z m-34.023284 304.87844a191.99994 191.99994 0 1 1 56.066539-135.4542 191.361005 191.361005 0 0 1-56.066539 135.4542z" p-id="1183"></path></svg>