<?xml version="1.0" standalone="no"?><!DOCTYPE svg PUBLIC "-//W3C//DTD SVG 1.1//EN" "http://www.w3.org/Graphics/SVG/1.1/DTD/svg11.dtd"><svg t="1583403835637" class="icon" viewBox="0 0 1024 1024" version="1.1" xmlns="http://www.w3.org/2000/svg" p-id="910" xmlns:xlink="http://www.w3.org/1999/xlink" width="200" height="200"><defs><style type="text/css"></style></defs><path d="M145.886908 983.279066a39.343543 39.343543 0 0 1-78.477812 0 221.987572 221.987572 0 0 1 69.740616-164.28022c56.294751-53.835779 134.981837-77.536079 181.806932-81.721562a40.651507 40.651507 0 0 0 23.7003-10.463709 27.938101 27.938101 0 0 0 7.272277-12.974998c-36.622979-30.344754-54.097372-72.199587-68.014104-107.61924a248.303799 248.303799 0 0 0-16.741934-35.995157l-0.837096-0.261593v-0.313911h-0.313912a211.105316 211.105316 0 0 1-51.586082-75.914204c-12.242539-32.071266-15.329333-67.490919 3.086794-99.823777A304.180001 304.180001 0 0 1 200.193555 298.533993a380.669709 380.669709 0 0 1 19.462497-125.5645l1.726512-3.348386c18.939312-55.509973 51.324489-96.213798 92.5515-123.78567C358.038595 15.543002 412.711471 1.887862 474.028802 0.318306a421.425853 421.425853 0 0 1 84.546763 5.231854c34.79183 6.121269 68.014104 19.514816 87.842831 47.662192 41.227011-3.609979 77.222167 19.253223 105.369543 52.73709 34.582556 40.128321 59.433863 98.725088 64.718036 133.307644a262.95299 262.95299 0 0 1 0.575504 80.884465 462.914456 462.914456 0 0 1-14.544554 69.165112c21.241328 33.483867 18.416127 70.786987 6.173588 103.747668a209.274167 209.274167 0 0 1-51.899994 76.123478l-0.575504 0.523186-0.523185 0.575504v0.313911c-4.185483 3.871572-10.463708 18.677719-17.317437 35.681245-13.655139 35.15806-30.083161 76.123478-66.078319 105.997366a28.408968 28.408968 0 0 0 7.53387 14.492236 40.965418 40.965418 0 0 0 23.7003 10.463708c46.615821 4.185483 125.19827 27.885783 181.545339 81.721562a222.667713 222.667713 0 0 1 69.740616 164.541814 39.081951 39.081951 0 1 1-78.111582 0 144.765405 144.765405 0 0 0-45.987998-107.409966 233.968518 233.968518 0 0 0-134.144741-60.218642 118.972364 118.972364 0 0 1-72.513499-33.483866c-21.189009-20.613505-51.324489-98.411177-11.980946-123.262485 27.571871-16.480341 41.854833-51.847675 53.521868-81.721562 10.882257-26.473182 19.828727-49.336385 37.66935-65.555132v0.575504-0.575504a123.890307 123.890307 0 0 0 31.391125-45.726406c5.598084-14.492236 6.749092-28.984472-2.720564-39.029632a51.324489 51.324489 0 0 1-9.155745-46.301909 376.6935 376.6935 0 0 0 15.695563-70.263802 203.41449 203.41449 0 0 0-0.313912-59.695456c-3.348387-23.438707-21.189009-64.142532-46.563502-93.702508-13.393547-15.695562-27.885783-27.362597-40.128321-25.060581a70.159164 70.159164 0 0 1-38.558765-6.173588A73.245958 73.245958 0 0 1 585.362658 102.548736l-2.302016-2.825201c-5.807358-8.894152-20.927417-14.492236-38.454128-17.526711A345.302375 345.302375 0 0 0 475.493721 79.11003c-46.563502 0.575504-87.005735 10.04516-118.501497 31.809673-27.362597 18.154534-48.551607 45.726405-62.206746 84.494445l-1.098689 3.034475a302.715082 302.715082 0 0 0-15.695563 98.777407 235.433437 235.433437 0 0 0 15.06774 82.558659 35.942838 35.942838 0 0 1 4.185483 25.636085c-4.185483 25.636085-24.798989 26.787093-12.55645 60.218641a137.911676 137.911676 0 0 0 30.920259 45.20322l1.151007 1.674194h0.575504c17.003526 15.695562 26.159271 38.454128 36.62298 64.404124 12.294857 29.873887 26.787093 65.816725 54.097372 82.87257a37.826306 37.826306 0 0 1 20.927416 34.582556c0 33.431548-5.598084 62.41602-30.710984 87.528921a117.455126 117.455126 0 0 1-73.245958 33.483866 231.771139 231.771139 0 0 0-133.203007 60.218642A143.823671 143.823671 0 0 0 145.886908 983.279066z" p-id="911"></path></svg>