<?xml version="1.0" standalone="no"?><!DOCTYPE svg PUBLIC "-//W3C//DTD SVG 1.1//EN" "http://www.w3.org/Graphics/SVG/1.1/DTD/svg11.dtd"><svg t="1583408946381" class="icon" viewBox="0 0 1024 1024" version="1.1" xmlns="http://www.w3.org/2000/svg" p-id="2008" xmlns:xlink="http://www.w3.org/1999/xlink" width="200" height="200"><defs><style type="text/css"></style></defs><path d="M945.562019 828.763912A191.288478 191.288478 0 0 0 861.978941 779.494965c6.29946-4.865437 11.728263-9.986949 17.464356-15.364536l1.690099-1.690099a194.258955 194.258955 0 0 0 1.331593-272.925382l-1.177947-1.434023a194.20774 194.20774 0 0 0-138.127182-56.951215 193.951664 193.951664 0 0 0-136.846804 331.51548 186.627902 186.627902 0 0 0 18.898379 16.849775 198.663455 198.663455 0 0 0-82.712421 47.834923l-1.177947 1.434024a190.059315 190.059315 0 0 0-56.336634 135.10549v36.362736a23.251665 23.251665 0 0 0 23.763817 23.456525h469.489016a23.20045 23.20045 0 0 0 23.456526-23.456525v-36.362736a190.11053 190.11053 0 0 0-56.336634-135.10549z m-348.979837-203.272817a149.650584 149.650584 0 0 1 42.969487-104.171556 147.90927 147.90927 0 0 1 207.830962 0l1.126733 1.690099a142.941403 142.941403 0 0 1 42.09883 102.430242 144.631502 144.631502 0 0 1-42.969487 103.659406l-1.126733 1.690099a146.116741 146.116741 0 0 1-101.047434 41.535463h-3.738704a146.628892 146.628892 0 0 1-102.430242-43.225562 146.731322 146.731322 0 0 1-42.969487-103.659406z m358.147343 351.284517H532.768141v-12.90621a144.682718 144.682718 0 0 1 41.791539-101.918092l1.434024-1.126732a143.40234 143.40234 0 0 1 100.740143-41.381818h133.722682a144.631502 144.631502 0 0 1 144.272996 144.272996v12.906211z m-559.93492-31.241224H100.768594V78.155094H704.236367v266.779567a39.538074 39.538074 0 1 0 79.024933 0V39.794969A39.538074 39.538074 0 0 0 743.46715 0.000819H61.845101A39.538074 39.538074 0 0 0 22.050952 39.794969v944.970202a39.230783 39.230783 0 0 0 39.794149 39.230783h332.898289a39.230783 39.230783 0 0 0 0-78.461566z m37.745544-114.20972H270.546721a23.763816 23.763816 0 1 0 0 47.527632h161.993428a23.763816 23.763816 0 0 0 0-47.527632z" p-id="2009"></path></svg>