<?xml version="1.0" standalone="no"?><!DOCTYPE svg PUBLIC "-//W3C//DTD SVG 1.1//EN" "http://www.w3.org/Graphics/SVG/1.1/DTD/svg11.dtd"><svg t="1583408864447" class="icon" viewBox="0 0 1024 1024" version="1.1" xmlns="http://www.w3.org/2000/svg" p-id="1046" xmlns:xlink="http://www.w3.org/1999/xlink" width="200" height="200"><defs><style type="text/css"></style></defs><path d="M378.964401 488.138582a23.364375 23.364375 0 0 0-32.322465 6.548311l-188.591368 291.949916a22.99767 22.99767 0 0 0-4.871944 14.615831 23.835853 23.835853 0 0 0 23.416762 23.73108h671.332884v-0.314319a21.94994 21.94994 0 0 0 12.887077-3.981373 22.473805 22.473805 0 0 0 6.548311-31.746214l-261.932455-406.047693a52.386491 52.386491 0 0 0-7.124563-6.86263 23.154829 23.154829 0 0 0-32.165306 6.86263l-125.727578 194.458655-54.010473-82.089631a15.087309 15.087309 0 0 0-7.438882-7.124563z m80.360878 144.953421l125.727579-194.458655 219.027919 339.150144H219.395149l146.682176-227.043053 53.800926 82.351564a23.207216 23.207216 0 0 0 39.447028 0zM214.261273 293.679927a95.238641 95.238641 0 1 0 95.500574-94.924322 95.186254 95.186254 0 0 0-95.500574 94.924322z m143.538986 0a47.724093 47.724093 0 0 1-48.038412 47.724093 47.881253 47.881253 0 1 1 48.038412-47.724093z m626.228115 414.90101a39.70896 39.70896 0 0 0-39.447028 39.185095v197.025593h-196.711274a39.604187 39.604187 0 0 0-39.761347 39.447028 40.232825 40.232825 0 0 0 39.761347 39.761347h235.73921a39.761347 39.761347 0 0 0 39.185096-39.761347v-236.472621a38.870776 38.870776 0 0 0-38.923163-39.185095z m-708.26536 235.73921H78.946966v-196.554115a39.342255 39.342255 0 0 0-78.579736 0v236.210689a39.761347 39.761347 0 0 0 39.447028 39.70896h235.73921a39.604187 39.604187 0 0 0 0-79.208375zM39.814258 314.844069A39.499414 39.499414 0 0 0 78.946966 275.397041V79.209632h196.816048a39.604187 39.604187 0 0 0 0-79.208375h-235.73921A39.342255 39.342255 0 0 0 0.36723 39.448285v235.73921a39.342255 39.342255 0 0 0 39.447028 39.656574zM984.028374 0.26319h-235.73921a39.604187 39.604187 0 0 0-39.761347 39.499414 40.023279 40.023279 0 0 0 39.761347 39.70896h196.711274v196.449342a39.342255 39.342255 0 1 0 78.579737 0V39.448285a39.551801 39.551801 0 0 0-39.551801-39.185095z" p-id="1047"></path></svg>