<?xml version="1.0" standalone="no"?><!DOCTYPE svg PUBLIC "-//W3C//DTD SVG 1.1//EN" "http://www.w3.org/Graphics/SVG/1.1/DTD/svg11.dtd"><svg t="1583466879179" class="icon" viewBox="0 0 1024 1024" version="1.1" xmlns="http://www.w3.org/2000/svg" p-id="1765" xmlns:xlink="http://www.w3.org/1999/xlink" width="200" height="200"><defs><style type="text/css"></style></defs><path d="M341.333333 473.6H106.666667c-23.466667 0-42.666667-19.2-42.666667-42.666667v-234.666666c0-23.466667 19.2-42.666667 42.666667-42.666667s42.666667 19.2 42.666666 42.666667v192h192c23.466667 0 42.666667 19.2 42.666667 42.666666s-19.2 42.666667-42.666667 42.666667z" p-id="1766" fill="#ffffff"></path><path d="M552.533333 919.466667c-168.533333 0-326.4-104.533333-384-273.066667-8.533333-21.333333 4.266667-46.933333 25.6-55.466667 21.333333-8.533333 46.933333 4.266667 55.466667 25.6 59.733333 168.533333 243.2 256 411.733333 196.266667 168.533333-59.733333 256-243.2 196.266667-411.733333-27.733333-81.066667-87.466667-147.2-164.266667-183.466667-76.8-36.266667-164.266667-42.666667-245.333333-12.8-44.8 14.933333-87.466667 42.666667-121.6 76.8l-189.866667 177.066667c-17.066667 17.066667-44.8 14.933333-59.733333-2.133334-17.066667-17.066667-14.933333-44.8 2.133333-59.733333l187.733334-177.066667c42.666667-42.666667 93.866667-74.666667 151.466666-96C629.333333 49.066667 864 160 938.666667 373.333333c74.666667 211.2-36.266667 445.866667-249.6 520.533334-44.8 19.2-91.733333 25.6-136.533334 25.6z" p-id="1767" fill="#ffffff"></path></svg>