<?xml version="1.0" standalone="no"?><!DOCTYPE svg PUBLIC "-//W3C//DTD SVG 1.1//EN" "http://www.w3.org/Graphics/SVG/1.1/DTD/svg11.dtd"><svg t="1583403887501" class="icon" viewBox="0 0 1024 1024" version="1.1" xmlns="http://www.w3.org/2000/svg" p-id="1044" xmlns:xlink="http://www.w3.org/1999/xlink" width="200" height="200"><defs><style type="text/css"></style></defs><path d="M1011.10399 951.797016l-185.163019-185.441794a457.750191 457.750191 0 0 0 72.48176-119.98519 468.343679 468.343679 0 0 0 35.181531-178.41664 476.037896 476.037896 0 0 0-34.289448-176.409452l-0.892083-2.453229A472.302298 472.302298 0 0 0 799.178475 139.388l-2.230208-2.230208a463.939018 463.939018 0 0 0-151.096592-101.251443A468.009147 468.009147 0 0 0 35.332237 288.588914a468.622455 468.622455 0 0 0-0.669062 354.937602l0.669062 2.230208A456.13329 456.13329 0 0 0 136.918211 797.299358a461.374279 461.374279 0 0 0 151.431123 101.195687 470.852663 470.852663 0 0 0 357.16781 0 472.748339 472.748339 0 0 0 119.98519-72.48176l185.441795 185.441795a42.318197 42.318197 0 0 0 59.825329 0 40.980072 40.980072 0 0 0 0.334532-59.825329z m-274.259828-214.155722l-0.947839 0.669062a388.390722 388.390722 0 0 1-123.107481 82.852227 385.491452 385.491452 0 0 1-291.989981 0 385.379941 385.379941 0 0 1-123.442013-83.6328 394.579549 394.579549 0 0 1-83.186758-123.999564l-0.613307-1.561146a385.379941 385.379941 0 0 1 0.613307-289.927039 367.03648 367.03648 0 0 1 83.186758-122.661439 376.849396 376.849396 0 0 1 269.576391-112.458238 388.836764 388.836764 0 0 1 145.855603 28.713927 377.629968 377.629968 0 0 1 124.05532 83.6328l2.174452 1.895677A384.710879 384.710879 0 0 1 819.696389 322.543831l0.892083 2.508984a385.101165 385.101165 0 0 1 27.8776 143.68115 378.07601 378.07601 0 0 1-111.844931 268.907329zM349.457033 189.567679a299.126647 299.126647 0 0 0-51.127518 27.8776 369.099423 369.099423 0 0 0-44.60416 36.742677v0.334531a263.053033 263.053033 0 0 0-37.077208 44.60416v0.334531a285.578134 285.578134 0 0 0-27.8776 50.792987 25.703147 25.703147 0 0 0 47.336165 19.904607 233.00098 233.00098 0 0 1 22.30208-42.652728v0.613307a257.700534 257.700534 0 0 1 31.167157-37.74627 222.686268 222.686268 0 0 1 37.690515-30.498095 194.306871 194.306871 0 0 1 42.095176-22.748121 26.874006 26.874006 0 0 0 13.994555-34.010672A26.260699 26.260699 0 0 0 349.457033 189.567679z m394.523794 252.794076a25.312861 25.312861 0 0 0-25.535881 25.981924 252.013503 252.013503 0 0 1-19.347055 96.28923v1.839921a255.30306 255.30306 0 0 1-135.875422 133.81248 255.19155 255.19155 0 0 1-95.954699 19.291299 25.312861 25.312861 0 0 0-25.870412 25.257105 25.981923 25.981923 0 0 0 25.870412 25.870413 302.360449 302.360449 0 0 0 213.486661-88.204726A311.615812 311.615812 0 0 0 745.876504 585.429598v-1.226614A299.182402 299.182402 0 0 0 769.516709 468.343679a25.08984 25.08984 0 0 0-25.257106-25.870413z" p-id="1045"></path></svg>