<?xml version="1.0" standalone="no"?><!DOCTYPE svg PUBLIC "-//W3C//DTD SVG 1.1//EN" "http://www.w3.org/Graphics/SVG/1.1/DTD/svg11.dtd"><svg t="1583408857529" class="icon" viewBox="0 0 1212 1024" version="1.1" xmlns="http://www.w3.org/2000/svg" p-id="910" xmlns:xlink="http://www.w3.org/1999/xlink" width="236.71875" height="200"><defs><style type="text/css"></style></defs><path d="M1212.412803 546.874878a48.469854 48.469854 0 0 0-6.058732-29.1425L1054.219318 254.480485a46.470472 46.470472 0 0 0-80.944656 45.743425l118.56938 204.845719h-199.453448a46.106948 46.106948 0 0 0-45.379901 39.624105 246.408619 246.408619 0 0 1-83.610497 147.106006 237.926394 237.926394 0 0 1-157.102914 57.921475 243.136904 243.136904 0 0 1-239.501664-200.846956 46.712822 46.712822 0 0 0-45.076964-43.683456H120.568761l118.872316-204.845719A46.349298 46.349298 0 1 0 158.799358 254.480485L6.78578 517.732378a43.986392 43.986392 0 0 0-6.058732 29.1425 25.628435 25.628435 0 0 0-0.666461 5.392271v424.656506A47.379282 47.379282 0 0 0 47.076345 1023.939413h1118.563049a47.076345 47.076345 0 0 0 46.409885-47.076346V552.267149a30.293659 30.293659 0 0 0 0.363524-5.392271z m-93.122706 383.335955H94.819151V598.677034H284.154517a336.25961 336.25961 0 0 0 541.468853 163.888693 343.408913 343.408913 0 0 0 105.361345-163.585757h189.274779v331.5338zM343.71185 318.945391h137.836146v285.487438a27.748991 27.748991 0 0 0 28.112516 27.446055h193.879414a27.203705 27.203705 0 0 0 27.748992-27.446055V318.945391h138.19967a27.930753 27.930753 0 0 0 27.930753-28.112515 30.293659 30.293659 0 0 0-7.755176-19.630291l-0.666461-0.363524-262.464258-262.464258a26.840181 26.840181 0 0 0-38.957645 0L324.445083 271.202585a27.748991 27.748991 0 0 0 0 39.260581 24.234927 24.234927 0 0 0 19.266767 8.482225z m263.191306-251.255604l195.394097 195.394097h-98.575565a28.23369 28.23369 0 0 0-28.112515 27.748992v285.123914H537.773027V290.832876a27.991341 27.991341 0 0 0-28.112515-27.748992H411.448471l195.454685-195.394097z" p-id="911"></path></svg>